<?xml version="1.0" encoding="utf-8"?>
<!-- Generator: Adobe Illustrator 25.2.0, SVG Export Plug-In . SVG Version: 6.00 Build 0)  -->
<svg version="1.1" id="Layer_1" xmlns="http://www.w3.org/2000/svg" xmlns:xlink="http://www.w3.org/1999/xlink" x="0px" y="0px"
	 viewBox="0 0 2436 1125" style="enable-background:new 0 0 2436 1125;" xml:space="preserve">
<style type="text/css">
	.st0{fill-rule:evenodd;clip-rule:evenodd;fill:#181616;}
	.st1{fill:#181616;}
</style>
<path class="st0" d="M1218,32.1c-300,0-543.3,243.2-543.3,543.3c0,240,155.7,443.7,371.5,515.5c27.1,5,37.1-11.8,37.1-26.1
	c0-12.9-0.5-55.8-0.7-101.2c-151.1,32.9-183-64.1-183-64.1c-24.7-62.8-60.3-79.5-60.3-79.5c-49.3-33.7,3.7-33,3.7-33
	c54.6,3.8,83.3,56,83.3,56c48.5,83.1,127.1,59,158.1,45.2c4.9-35.1,19-59.1,34.5-72.7C998.2,801.8,871.3,755.2,871.3,547
	c0-59.3,21.2-107.8,56-145.8c-5.6-13.7-24.2-68.9,5.3-143.8c0,0,45.6-14.6,149.4,55.7c43.3-12,89.8-18.1,136-18.3
	c46.2,0.2,92.7,6.2,136.1,18.3c103.7-70.3,149.3-55.7,149.3-55.7c29.6,74.8,11,130.1,5.3,143.8c34.8,38,55.9,86.5,55.9,145.8
	c0,208.7-127.1,254.6-248.1,268.1c19.5,16.9,36.8,49.9,36.8,100.6c0,72.7-0.6,131.2-0.6,149.1c0,14.5,9.8,31.4,37.3,26.1
	c215.8-71.9,371.2-275.5,371.2-515.5C1761.3,275.3,1518,32.1,1218,32.1z"/>
<path class="st1" d="M880.5,812.1c-1.2,2.7-5.4,3.5-9.3,1.7c-3.9-1.8-6.2-5.5-4.9-8.2c1.2-2.8,5.4-3.5,9.4-1.7
	C879.6,805.7,881.8,809.4,880.5,812.1L880.5,812.1z"/>
<path class="st1" d="M902.5,836.7c-2.6,2.4-7.7,1.3-11.1-2.5c-3.6-3.8-4.2-8.9-1.6-11.3c2.7-2.4,7.6-1.3,11.1,2.5
	C904.5,829.2,905.2,834.3,902.5,836.7L902.5,836.7z"/>
<path class="st1" d="M923.9,868c-3.3,2.3-8.8,0.1-12.1-4.7c-3.3-4.8-3.3-10.6,0.1-13c3.4-2.3,8.7-0.2,12.1,4.6
	C927.3,859.8,927.3,865.6,923.9,868L923.9,868z"/>
<path class="st1" d="M953.3,898.2c-3,3.3-9.3,2.4-14-2.1c-4.8-4.4-6.1-10.6-3.1-13.9c3-3.3,9.4-2.4,14.1,2.1
	C955,888.7,956.4,895,953.3,898.2L953.3,898.2z"/>
<path class="st1" d="M993.7,915.8c-1.3,4.3-7.4,6.2-13.6,4.4c-6.2-1.9-10.2-6.8-8.9-11.1c1.3-4.3,7.4-6.3,13.6-4.4
	C991,906.5,995,911.4,993.7,915.8z"/>
<path class="st1" d="M1038.2,919c0.1,4.5-5.1,8.2-11.5,8.3c-6.5,0.1-11.8-3.5-11.8-7.9c0-4.5,5.1-8.2,11.6-8.3
	C1032.9,911,1038.2,914.6,1038.2,919L1038.2,919z"/>
<path class="st1" d="M1079.6,912c0.8,4.4-3.7,8.9-10.1,10.1c-6.3,1.2-12.1-1.5-12.9-5.9c-0.8-4.5,3.8-9,10.1-10.1
	C1073,904.9,1078.8,907.5,1079.6,912L1079.6,912z"/>
</svg>
