<svg width="198" height="56" viewBox="0 0 198 56" fill="none" xmlns="http://www.w3.org/2000/svg">
<path d="M0.609563 36.748C0.609563 39.28 1.83356 40.144 3.44156 40.144C5.04956 40.144 6.27356 39.28 6.27356 36.748V32.128H5.31356V36.772C5.31356 38.668 4.48556 39.268 3.44156 39.268C2.42156 39.268 1.61756 38.668 1.61756 36.772V32.128H0.609563V36.748ZM2.40956 31.42C2.74556 31.42 2.99756 31.168 2.99756 30.832C2.99756 30.484 2.74556 30.244 2.40956 30.244C2.07356 30.244 1.82156 30.484 1.82156 30.832C1.82156 31.168 2.07356 31.42 2.40956 31.42ZM4.48556 31.42C4.82156 31.42 5.06156 31.168 5.06156 30.832C5.06156 30.484 4.82156 30.244 4.48556 30.244C4.13756 30.244 3.89756 30.484 3.89756 30.832C3.89756 31.168 4.13756 31.42 4.48556 31.42ZM8.26134 40H9.05334L9.13734 39.424H9.17334C9.68934 39.88 10.3013 40.144 10.8413 40.144C12.1733 40.144 13.3613 38.98 13.3613 36.988C13.3613 35.188 12.5573 34.024 11.0453 34.024C10.3973 34.024 9.74934 34.372 9.22134 34.84L9.24534 33.784V31.456H8.26134V40ZM9.24534 38.704V35.644C9.79734 35.128 10.3133 34.852 10.8053 34.852C11.9093 34.852 12.3413 35.716 12.3413 37C12.3413 38.44 11.6333 39.316 10.6733 39.316C10.2893 39.316 9.76134 39.148 9.24534 38.704ZM14.4856 37.096C14.4856 39.004 15.7216 40.144 17.2816 40.144C18.0736 40.144 18.6976 39.868 19.2016 39.544L18.8536 38.896C18.4216 39.172 17.9536 39.352 17.4016 39.352C16.2856 39.352 15.5296 38.56 15.4576 37.3H19.3936C19.4176 37.156 19.4296 36.964 19.4296 36.76C19.4296 35.092 18.5896 34.024 17.1016 34.024C15.7696 34.024 14.4856 35.188 14.4856 37.096ZM15.4456 36.652C15.5656 35.476 16.3096 34.804 17.1256 34.804C18.0376 34.804 18.5656 35.464 18.5656 36.652H15.4456ZM20.8707 40H21.8547V36.256C22.2507 35.272 22.8387 34.912 23.3307 34.912C23.5707 34.912 23.7027 34.948 23.8947 35.008L24.0867 34.144C23.8947 34.06 23.7147 34.024 23.4627 34.024C22.8027 34.024 22.2027 34.492 21.8067 35.224H21.7707L21.6867 34.168H20.8707V40ZM26.9167 40H32.2807V38.512H30.7447C30.3847 38.512 29.8567 38.56 29.4727 38.608C30.7087 37.312 31.9087 35.944 31.9087 34.66C31.9087 33.196 30.8887 32.236 29.3887 32.236C28.2967 32.236 27.5887 32.644 26.8327 33.448L27.7927 34.396C28.1767 33.988 28.5967 33.616 29.1487 33.616C29.8087 33.616 30.2287 34.024 30.2287 34.768C30.2287 35.848 28.8607 37.156 26.9167 38.992V40ZM35.9805 40.144C37.6125 40.144 38.7045 38.752 38.7045 36.16C38.7045 33.568 37.6125 32.236 35.9805 32.236C34.3485 32.236 33.2565 33.568 33.2565 36.16C33.2565 38.752 34.3485 40.144 35.9805 40.144ZM35.9805 38.776C35.3925 38.776 34.9245 38.236 34.9245 36.16C34.9245 34.072 35.3925 33.604 35.9805 33.604C36.5805 33.604 37.0365 34.072 37.0365 36.16C37.0365 38.236 36.5805 38.776 35.9805 38.776ZM42.3203 40.144C43.9523 40.144 45.0443 38.752 45.0443 36.16C45.0443 33.568 43.9523 32.236 42.3203 32.236C40.6883 32.236 39.5963 33.568 39.5963 36.16C39.5963 38.752 40.6883 40.144 42.3203 40.144ZM42.3203 38.776C41.7323 38.776 41.2643 38.236 41.2643 36.16C41.2643 34.072 41.7323 33.604 42.3203 33.604C42.9203 33.604 43.3763 34.072 43.3763 36.16C43.3763 38.236 42.9203 38.776 42.3203 38.776ZM48.6602 40.144C50.2922 40.144 51.3842 38.752 51.3842 36.16C51.3842 33.568 50.2922 32.236 48.6602 32.236C47.0282 32.236 45.9362 33.568 45.9362 36.16C45.9362 38.752 47.0282 40.144 48.6602 40.144ZM48.6602 38.776C48.0722 38.776 47.6042 38.236 47.6042 36.16C47.6042 34.072 48.0722 33.604 48.6602 33.604C49.2602 33.604 49.7162 34.072 49.7162 36.16C49.7162 38.236 49.2602 38.776 48.6602 38.776ZM55.3121 40H56.2961V35.776C56.8841 35.188 57.2921 34.876 57.8921 34.876C58.6601 34.876 58.9961 35.344 58.9961 36.436V40H59.9801V36.304C59.9801 34.816 59.4281 34.024 58.2041 34.024C57.4001 34.024 56.8121 34.456 56.2601 34.984L56.2961 33.784V31.456H55.3121V40ZM61.4075 37.096C61.4075 39.004 62.6435 40.144 64.2035 40.144C64.9955 40.144 65.6195 39.868 66.1235 39.544L65.7755 38.896C65.3435 39.172 64.8755 39.352 64.3235 39.352C63.2075 39.352 62.4515 38.56 62.3795 37.3H66.3155C66.3395 37.156 66.3515 36.964 66.3515 36.76C66.3515 35.092 65.5115 34.024 64.0235 34.024C62.6915 34.024 61.4075 35.188 61.4075 37.096ZM62.3675 36.652C62.4875 35.476 63.2315 34.804 64.0475 34.804C64.9595 34.804 65.4875 35.464 65.4875 36.652H62.3675ZM67.7926 40H68.7766V36.256C69.1726 35.272 69.7606 34.912 70.2526 34.912C70.4926 34.912 70.6246 34.948 70.8166 35.008L71.0086 34.144C70.8166 34.06 70.6366 34.024 70.3846 34.024C69.7246 34.024 69.1246 34.492 68.7286 35.224H68.6926L68.6086 34.168H67.7926V40ZM73.4354 40H74.5874L76.6514 34.168H75.6794L74.5754 37.48C74.4074 38.056 74.2154 38.644 74.0474 39.196H73.9994C73.8194 38.644 73.6274 38.056 73.4594 37.48L72.3554 34.168H71.3354L73.4354 40ZM77.2981 37.096C77.2981 39.028 78.5701 40.144 79.9981 40.144C81.4261 40.144 82.6981 39.028 82.6981 37.096C82.6981 35.14 81.4261 34.024 79.9981 34.024C78.5701 34.024 77.2981 35.14 77.2981 37.096ZM78.3181 37.096C78.3181 35.752 79.0021 34.84 79.9981 34.84C81.0061 34.84 81.6781 35.752 81.6781 37.096C81.6781 38.428 81.0061 39.328 79.9981 39.328C79.0021 39.328 78.3181 38.428 78.3181 37.096ZM84.234 40H85.218V36.256C85.614 35.272 86.202 34.912 86.694 34.912C86.934 34.912 87.066 34.948 87.258 35.008L87.45 34.144C87.258 34.06 87.078 34.024 86.826 34.024C86.166 34.024 85.566 34.492 85.17 35.224H85.134L85.05 34.168H84.234V40ZM88.3942 40H89.3782V36.256C89.7742 35.272 90.3622 34.912 90.8542 34.912C91.0942 34.912 91.2262 34.948 91.4182 35.008L91.6102 34.144C91.4182 34.06 91.2382 34.024 90.9862 34.024C90.3262 34.024 89.7262 34.492 89.3302 35.224H89.2942L89.2102 34.168H88.3942V40ZM91.9616 38.488C91.9616 39.532 92.6936 40.144 93.6776 40.144C94.3976 40.144 95.0456 39.76 95.6096 39.304H95.6336L95.7176 40H96.5336V36.424C96.5336 34.972 95.9336 34.024 94.5056 34.024C93.5696 34.024 92.7536 34.432 92.2136 34.78L92.6096 35.464C93.0656 35.152 93.6656 34.84 94.3496 34.84C95.2976 34.84 95.5496 35.56 95.5496 36.304C93.0656 36.58 91.9616 37.216 91.9616 38.488ZM92.9336 38.416C92.9336 37.672 93.5936 37.192 95.5496 36.952V38.572C94.9856 39.076 94.5176 39.352 93.9536 39.352C93.3776 39.352 92.9336 39.076 92.9336 38.416ZM98.8103 40.984C98.8103 40.648 98.9902 40.3 99.4103 40C99.6623 40.072 99.9383 40.096 100.166 40.096H101.174C101.93 40.096 102.35 40.276 102.35 40.816C102.35 41.428 101.618 42.004 100.502 42.004C99.4463 42.004 98.8103 41.608 98.8103 40.984ZM97.9463 41.116C97.9463 42.124 98.9303 42.688 100.358 42.688C102.17 42.688 103.31 41.752 103.31 40.672C103.31 39.7 102.626 39.28 101.27 39.28H100.142C99.3503 39.28 99.1103 39.016 99.1103 38.644C99.1103 38.32 99.2783 38.128 99.4823 37.948C99.7463 38.08 100.07 38.152 100.358 38.152C101.546 38.152 102.494 37.372 102.494 36.124C102.494 35.632 102.29 35.188 102.014 34.924H103.214V34.168H101.186C100.97 34.084 100.682 34.024 100.358 34.024C99.1702 34.024 98.1623 34.828 98.1623 36.1C98.1623 36.796 98.5343 37.36 98.9183 37.672V37.72C98.6183 37.924 98.2823 38.308 98.2823 38.8C98.2823 39.256 98.5103 39.568 98.7983 39.748V39.796C98.2703 40.156 97.9463 40.624 97.9463 41.116ZM100.358 37.492C99.6863 37.492 99.1223 36.952 99.1223 36.1C99.1223 35.248 99.6743 34.744 100.358 34.744C101.042 34.744 101.594 35.248 101.594 36.1C101.594 36.952 101.03 37.492 100.358 37.492ZM103.841 37.096C103.841 39.004 105.077 40.144 106.637 40.144C107.429 40.144 108.053 39.868 108.557 39.544L108.209 38.896C107.777 39.172 107.309 39.352 106.757 39.352C105.641 39.352 104.885 38.56 104.813 37.3H108.749C108.773 37.156 108.785 36.964 108.785 36.76C108.785 35.092 107.945 34.024 106.457 34.024C105.125 34.024 103.841 35.188 103.841 37.096ZM104.801 36.652C104.921 35.476 105.665 34.804 106.481 34.804C107.393 34.804 107.921 35.464 107.921 36.652H104.801ZM110.226 40H111.21V35.776C111.798 35.188 112.206 34.876 112.806 34.876C113.574 34.876 113.91 35.344 113.91 36.436V40H114.894V36.304C114.894 34.816 114.342 34.024 113.118 34.024C112.314 34.024 111.714 34.456 111.162 35.008H111.126L111.042 34.168H110.226V40ZM116.369 37.096C116.369 39.04 117.317 40.144 118.781 40.144C119.465 40.144 120.089 39.76 120.545 39.316H120.581L120.665 40H121.481V31.456H120.485V33.7L120.533 34.696C120.017 34.276 119.573 34.024 118.901 34.024C117.569 34.024 116.369 35.2 116.369 37.096ZM117.389 37.084C117.389 35.752 118.133 34.852 119.069 34.852C119.549 34.852 119.993 35.02 120.485 35.464V38.512C120.005 39.052 119.537 39.316 118.997 39.316C117.977 39.316 117.389 38.476 117.389 37.084ZM123.013 37.096C123.013 39.004 124.249 40.144 125.809 40.144C126.601 40.144 127.225 39.868 127.729 39.544L127.381 38.896C126.949 39.172 126.481 39.352 125.929 39.352C124.813 39.352 124.057 38.56 123.985 37.3H127.921C127.945 37.156 127.957 36.964 127.957 36.76C127.957 35.092 127.117 34.024 125.629 34.024C124.297 34.024 123.013 35.188 123.013 37.096ZM123.973 36.652C124.093 35.476 124.837 34.804 125.653 34.804C126.565 34.804 127.093 35.464 127.093 36.652H123.973ZM131.884 40H134.404C136.156 40 137.38 39.244 137.38 37.696C137.38 36.616 136.708 35.992 135.556 35.812V35.764C136.492 35.524 136.936 34.828 136.936 34.048C136.936 32.668 135.82 32.128 134.224 32.128H131.884V40ZM132.892 35.488V32.92H134.104C135.316 32.92 135.952 33.28 135.952 34.132C135.952 35.008 135.388 35.488 134.056 35.488H132.892ZM132.892 39.208V36.232H134.26C135.64 36.232 136.396 36.676 136.396 37.648C136.396 38.716 135.604 39.208 134.26 39.208H132.892ZM138.388 37.096C138.388 39.004 139.624 40.144 141.184 40.144C141.976 40.144 142.6 39.868 143.104 39.544L142.756 38.896C142.324 39.172 141.856 39.352 141.304 39.352C140.188 39.352 139.432 38.56 139.36 37.3H143.296C143.32 37.156 143.332 36.964 143.332 36.76C143.332 35.092 142.492 34.024 141.004 34.024C139.672 34.024 138.388 35.188 138.388 37.096ZM139.348 36.652C139.468 35.476 140.212 34.804 141.028 34.804C141.94 34.804 142.468 35.464 142.468 36.652H139.348ZM145.756 40H146.908L147.724 36.88C147.88 36.328 148 35.776 148.132 35.188H148.18C148.324 35.776 148.432 36.316 148.576 36.868L149.416 40H150.616L152.176 34.168H151.24L150.388 37.54C150.268 38.092 150.16 38.62 150.028 39.16H149.98C149.848 38.62 149.716 38.092 149.572 37.54L148.66 34.168H147.7L146.8 37.54C146.656 38.08 146.536 38.62 146.404 39.16H146.356C146.248 38.62 146.14 38.092 146.008 37.54L145.144 34.168H144.136L145.756 40ZM152.966 37.096C152.966 39.004 154.202 40.144 155.762 40.144C156.554 40.144 157.178 39.868 157.682 39.544L157.334 38.896C156.902 39.172 156.434 39.352 155.882 39.352C154.766 39.352 154.01 38.56 153.938 37.3H157.874C157.898 37.156 157.91 36.964 157.91 36.76C157.91 35.092 157.07 34.024 155.582 34.024C154.25 34.024 152.966 35.188 152.966 37.096ZM153.926 36.652C154.046 35.476 154.79 34.804 155.606 34.804C156.518 34.804 157.046 35.464 157.046 36.652H153.926ZM159.351 40H160.335V36.256C160.731 35.272 161.319 34.912 161.811 34.912C162.051 34.912 162.183 34.948 162.375 35.008L162.567 34.144C162.375 34.06 162.195 34.024 161.943 34.024C161.283 34.024 160.683 34.492 160.287 35.224H160.251L160.167 34.168H159.351V40ZM163.679 38.2C163.679 39.352 164.099 40.144 165.347 40.144C165.707 40.144 166.103 40.036 166.427 39.928L166.235 39.184C166.043 39.256 165.779 39.34 165.575 39.34C164.903 39.34 164.675 38.932 164.675 38.212V34.972H166.247V34.168H164.675V32.536H163.847L163.727 34.168L162.815 34.228V34.972H163.679V38.2ZM167.412 37.864C167.412 39.352 167.964 40.144 169.2 40.144C170.004 40.144 170.58 39.724 171.12 39.088H171.156L171.24 40H172.056V34.168H171.072V38.308C170.52 38.992 170.1 39.292 169.5 39.292C168.732 39.292 168.408 38.824 168.408 37.732V34.168H167.412V37.864ZM174.023 40H175.007V35.776C175.595 35.188 176.003 34.876 176.603 34.876C177.371 34.876 177.707 35.344 177.707 36.436V40H178.691V36.304C178.691 34.816 178.139 34.024 176.915 34.024C176.111 34.024 175.511 34.456 174.959 35.008H174.923L174.839 34.168H174.023V40ZM181.006 40.984C181.006 40.648 181.186 40.3 181.606 40C181.858 40.072 182.134 40.096 182.362 40.096H183.37C184.126 40.096 184.546 40.276 184.546 40.816C184.546 41.428 183.814 42.004 182.698 42.004C181.642 42.004 181.006 41.608 181.006 40.984ZM180.142 41.116C180.142 42.124 181.126 42.688 182.554 42.688C184.366 42.688 185.506 41.752 185.506 40.672C185.506 39.7 184.822 39.28 183.466 39.28H182.338C181.546 39.28 181.306 39.016 181.306 38.644C181.306 38.32 181.474 38.128 181.678 37.948C181.942 38.08 182.266 38.152 182.554 38.152C183.742 38.152 184.69 37.372 184.69 36.124C184.69 35.632 184.486 35.188 184.21 34.924H185.41V34.168H183.382C183.166 34.084 182.878 34.024 182.554 34.024C181.366 34.024 180.358 34.828 180.358 36.1C180.358 36.796 180.73 37.36 181.114 37.672V37.72C180.814 37.924 180.478 38.308 180.478 38.8C180.478 39.256 180.706 39.568 180.994 39.748V39.796C180.466 40.156 180.142 40.624 180.142 41.116ZM182.554 37.492C181.882 37.492 181.318 36.952 181.318 36.1C181.318 35.248 181.87 34.744 182.554 34.744C183.238 34.744 183.79 35.248 183.79 36.1C183.79 36.952 183.226 37.492 182.554 37.492ZM186.036 37.096C186.036 39.004 187.272 40.144 188.832 40.144C189.624 40.144 190.248 39.868 190.752 39.544L190.404 38.896C189.972 39.172 189.504 39.352 188.952 39.352C187.836 39.352 187.08 38.56 187.008 37.3H190.944C190.968 37.156 190.98 36.964 190.98 36.76C190.98 35.092 190.14 34.024 188.652 34.024C187.32 34.024 186.036 35.188 186.036 37.096ZM186.996 36.652C187.116 35.476 187.86 34.804 188.676 34.804C189.588 34.804 190.116 35.464 190.116 36.652H186.996ZM192.422 40H193.406V35.776C193.994 35.188 194.402 34.876 195.002 34.876C195.77 34.876 196.106 35.344 196.106 36.436V40H197.09V36.304C197.09 34.816 196.538 34.024 195.314 34.024C194.51 34.024 193.91 34.456 193.358 35.008H193.322L193.238 34.168H192.422V40Z" fill="white"/>
<path d="M130.369 5.45457H122.349C120.692 5.45457 119.349 6.79771 119.349 8.45457V16.7638C119.349 18.4207 120.692 19.7638 122.349 19.7638H130.369C132.026 19.7638 133.369 18.4207 133.369 16.7638V8.45457C133.369 6.79771 132.026 5.45457 130.369 5.45457Z" fill="white"/>
<path fill-rule="evenodd" clip-rule="evenodd" d="M128.496 14.5572L129.393 17.3759C129.393 17.3759 126.377 15.1389 126.371 15.134L126.35 15.1497L123.307 17.3939L124.468 13.7493L121.424 11.4871H125.189L126.35 7.84243L127.511 11.4871H131.276L128.232 13.7493L126.378 15.129L128.496 14.5572ZM133.017 5.45457H119.7C119.507 5.45457 119.349 5.61615 119.349 5.81364V19.4047C119.349 19.6022 119.507 19.7638 119.7 19.7638H133.017C133.211 19.7638 133.369 19.6022 133.369 19.4047V5.81364C133.369 5.61615 133.211 5.45457 133.017 5.45457Z" fill="#00B679"/>
<path d="M146.141 5.45457H138.121C136.464 5.45457 135.121 6.79771 135.121 8.45457V16.7638C135.121 18.4207 136.464 19.7638 138.121 19.7638H146.141C147.798 19.7638 149.141 18.4207 149.141 16.7638V8.45457C149.141 6.79771 147.798 5.45457 146.141 5.45457Z" fill="white"/>
<path fill-rule="evenodd" clip-rule="evenodd" d="M144.269 14.5572L145.166 17.3759C145.166 17.3759 142.15 15.1389 142.143 15.134L142.122 15.1497L139.079 17.3939L140.24 13.7493L137.197 11.4871H140.961L142.122 7.84243L143.283 11.4871H147.048L144.005 13.7493L142.15 15.129L144.269 14.5572ZM148.79 5.45457H135.473C135.279 5.45457 135.121 5.61615 135.121 5.81364V19.4047C135.121 19.6022 135.279 19.7638 135.473 19.7638H148.79C148.983 19.7638 149.141 19.6022 149.141 19.4047V5.81364C149.141 5.61615 148.983 5.45457 148.79 5.45457Z" fill="#00B679"/>
<path d="M161.915 5.45457H153.895C152.238 5.45457 150.895 6.79771 150.895 8.45457V16.7638C150.895 18.4207 152.238 19.7638 153.895 19.7638H161.915C163.572 19.7638 164.915 18.4207 164.915 16.7638V8.45457C164.915 6.79771 163.572 5.45457 161.915 5.45457Z" fill="white"/>
<path fill-rule="evenodd" clip-rule="evenodd" d="M160.042 14.5572L160.939 17.3759C160.939 17.3759 157.923 15.1389 157.917 15.134L157.896 15.1497L154.853 17.3939L156.014 13.7493L152.97 11.4871H156.735L157.896 7.84243L159.057 11.4871H162.821L159.778 13.7493L157.924 15.129L160.042 14.5572ZM164.563 5.45457H151.246C151.053 5.45457 150.895 5.61615 150.895 5.81364V19.4047C150.895 19.6022 151.053 19.7638 151.246 19.7638H164.563C164.756 19.7638 164.915 19.6022 164.915 19.4047V5.81364C164.915 5.61615 164.756 5.45457 164.563 5.45457Z" fill="#00B679"/>
<path d="M177.687 5.45457H169.667C168.01 5.45457 166.667 6.79771 166.667 8.45457V16.7638C166.667 18.4207 168.01 19.7638 169.667 19.7638H177.687C179.344 19.7638 180.687 18.4207 180.687 16.7638V8.45457C180.687 6.79771 179.344 5.45457 177.687 5.45457Z" fill="white"/>
<path fill-rule="evenodd" clip-rule="evenodd" d="M175.814 14.5572L176.712 17.3759C176.712 17.3759 173.696 15.1389 173.689 15.134L173.668 15.1497L170.625 17.3939L171.786 13.7493L168.743 11.4871H172.507L173.668 7.84243L174.829 11.4871H178.594L175.551 13.7493L173.696 15.129L175.814 14.5572ZM180.335 5.45457H167.019C166.825 5.45457 166.667 5.61615 166.667 5.81364V19.4047C166.667 19.6022 166.825 19.7638 167.019 19.7638H180.335C180.529 19.7638 180.687 19.6022 180.687 19.4047V5.81364C180.687 5.61615 180.529 5.45457 180.335 5.45457Z" fill="#00B679"/>
<path d="M193.461 5.45457H185.44C183.784 5.45457 182.44 6.79771 182.44 8.45457V16.7638C182.44 18.4207 183.784 19.7638 185.44 19.7638H193.461C195.118 19.7638 196.461 18.4207 196.461 16.7638V8.45457C196.461 6.79771 195.118 5.45457 193.461 5.45457Z" fill="white"/>
<path fill-rule="evenodd" clip-rule="evenodd" d="M191.588 14.5572L192.485 17.3759C192.485 17.3759 189.469 15.1389 189.463 15.134L189.442 15.1497L186.398 17.3939L187.559 13.7493L184.516 11.4871H188.281L189.442 7.84243L190.603 11.4871H194.367L191.324 13.7493L189.47 15.129L191.588 14.5572ZM196.109 5.45457H182.792C182.599 5.45457 182.44 5.61615 182.44 5.81364V19.4047C182.44 19.6022 182.599 19.7638 182.792 19.7638H196.109C196.302 19.7638 196.461 19.6022 196.461 19.4047V5.81364C196.461 5.61615 196.302 5.45457 196.109 5.45457Z" fill="#00B679"/>
<path fill-rule="evenodd" clip-rule="evenodd" d="M107.809 11.0289H109.095V8.61502H110.795V11.0289H112.33V12.3533H110.795V16.6483C110.795 16.8364 110.803 16.9931 110.818 17.1341C110.833 17.2674 110.871 17.385 110.923 17.479C110.976 17.5731 111.059 17.6435 111.171 17.6906C111.284 17.7376 111.427 17.7611 111.623 17.7611C111.743 17.7611 111.863 17.7611 111.984 17.7533C112.104 17.7455 112.225 17.7298 112.345 17.6985V19.07C112.157 19.0934 111.969 19.1092 111.796 19.1326C111.615 19.1562 111.435 19.164 111.247 19.164C110.795 19.164 110.434 19.117 110.163 19.0308C109.893 18.9446 109.674 18.8114 109.524 18.6389C109.366 18.4664 109.268 18.2549 109.208 17.9962C109.155 17.7376 109.118 17.4398 109.11 17.1107V12.3691H107.824V11.0289H107.809ZM103.416 17.8866C103.792 17.8866 104.123 17.8003 104.401 17.6358C104.679 17.4712 104.905 17.2517 105.085 16.9853C105.266 16.7188 105.394 16.4132 105.484 16.0761C105.567 15.7392 105.612 15.3943 105.612 15.0417C105.612 14.6968 105.567 14.3598 105.484 14.015C105.401 13.6701 105.266 13.3722 105.085 13.1058C104.905 12.8394 104.679 12.6277 104.401 12.4632C104.123 12.2986 103.792 12.2124 103.416 12.2124C103.039 12.2124 102.708 12.2986 102.43 12.4632C102.152 12.6277 101.926 12.8472 101.746 13.1058C101.565 13.3722 101.437 13.6701 101.347 14.015C101.264 14.3598 101.219 14.6968 101.219 15.0417C101.219 15.3943 101.264 15.7392 101.347 16.0761C101.43 16.4132 101.565 16.7188 101.746 16.9853C101.926 17.2517 102.152 17.4712 102.43 17.6358C102.708 17.8082 103.039 17.8866 103.416 17.8866ZM103.415 19.2894C102.798 19.2894 102.249 19.1797 101.768 18.9681C101.286 18.7565 100.88 18.4587 100.542 18.0903C100.211 17.7141 99.9549 17.2674 99.7819 16.7502C99.6089 16.2328 99.5187 15.6608 99.5187 15.0416C99.5187 14.4302 99.6089 13.866 99.7819 13.3488C99.9549 12.8315 100.211 12.3848 100.542 12.0086C100.873 11.6324 101.286 11.3424 101.768 11.1308C102.249 10.9192 102.798 10.8095 103.415 10.8095C104.032 10.8095 104.581 10.9192 105.063 11.1308C105.544 11.3424 105.95 11.6402 106.289 12.0086C106.62 12.3848 106.875 12.8315 107.048 13.3488C107.221 13.866 107.312 14.4302 107.312 15.0416C107.312 15.6608 107.221 16.2328 107.048 16.7502C106.875 17.2674 106.62 17.7141 106.289 18.0903C105.958 18.4664 105.544 18.7565 105.063 18.9681C104.581 19.1797 104.032 19.2894 103.415 19.2894ZM96.5019 19.07H98.2019V7.96455H96.5019V19.07ZM93.2825 19.0701H94.9826V11.029H93.2825V19.0701ZM93.2825 9.64174H94.9826V7.96455H93.2825V9.64174ZM90.2814 15.0573C90.2814 14.6968 90.2362 14.3441 90.146 13.9992C90.0558 13.6545 89.9204 13.3566 89.7398 13.0902C89.5592 12.8236 89.3336 12.6121 89.0703 12.4554C88.7996 12.2986 88.4911 12.2124 88.1451 12.2124C87.4305 12.2124 86.8888 12.4709 86.5278 12.9883C86.1668 13.5055 85.9862 14.1952 85.9862 15.0573C85.9862 15.4649 86.0314 15.841 86.1292 16.1859C86.227 16.5307 86.3623 16.8286 86.5579 17.0794C86.746 17.3301 86.9717 17.526 87.2349 17.6672C87.4982 17.8161 87.8066 17.8866 88.1526 17.8866C88.5437 17.8866 88.8673 17.8003 89.1381 17.6358C89.4088 17.4712 89.627 17.2517 89.8 16.9931C89.9729 16.7267 90.1009 16.4288 90.1761 16.0919C90.2438 15.7549 90.2814 15.4099 90.2814 15.0573ZM84.3388 11.0289H85.9485V12.1182H85.9787C86.2194 11.648 86.5503 11.3189 86.9791 11.1151C87.4079 10.9114 87.8667 10.8095 88.3707 10.8095C88.98 10.8095 89.5066 10.9192 89.9579 11.1465C90.4092 11.3659 90.7853 11.6716 91.0862 12.0635C91.3871 12.4553 91.6053 12.9099 91.7557 13.4271C91.9062 13.9444 91.9814 14.5009 91.9814 15.0886C91.9814 15.6294 91.9137 16.1544 91.7782 16.6561C91.6429 17.1655 91.4397 17.6123 91.169 18.0041C90.8982 18.396 90.5522 18.7016 90.1309 18.9367C89.7096 19.1718 89.2207 19.2894 88.649 19.2894C88.4008 19.2894 88.1526 19.2659 87.9043 19.2189C87.6561 19.1718 87.4153 19.0934 87.1897 18.9916C86.964 18.8897 86.7459 18.7565 86.5579 18.5919C86.3622 18.4273 86.2043 18.2392 86.0689 18.0276H86.0388V22.0403H84.3388V11.0289ZM78.6144 11.0289H79.9008V8.61502H81.6008V11.0289H83.1354V12.3533H81.6008V16.6483C81.6008 16.8364 81.6084 16.9931 81.6233 17.1341C81.6384 17.2674 81.6761 17.385 81.7287 17.479C81.7814 17.5731 81.8641 17.6435 81.9769 17.6906C82.0898 17.7376 82.2327 17.7611 82.4283 17.7611C82.5486 17.7611 82.669 17.7611 82.7893 17.7533C82.9097 17.7455 83.0301 17.7298 83.1504 17.6985V19.07C82.9623 19.0934 82.7743 19.1092 82.6012 19.1326C82.4207 19.1562 82.2402 19.164 82.0522 19.164C81.6008 19.164 81.2398 19.117 80.969 19.0308C80.6982 18.9446 80.48 18.8114 80.3296 18.6389C80.1716 18.4664 80.0738 18.2549 80.0136 17.9962C79.961 17.7376 79.9234 17.4398 79.9159 17.1107V12.3691H78.6296V11.0289H78.6144ZM73.0039 16.4915C73.0565 17.0088 73.2446 17.3692 73.568 17.5809C73.899 17.7847 74.2901 17.8944 74.749 17.8944C74.907 17.8944 75.0875 17.8786 75.2906 17.8552C75.4936 17.8317 75.6893 17.7768 75.8623 17.7063C76.0428 17.6358 76.1858 17.526 76.3061 17.385C76.419 17.2439 76.4715 17.0636 76.4641 16.8364C76.4566 16.6091 76.3738 16.421 76.2234 16.2799C76.0729 16.131 75.8849 16.0213 75.6517 15.9272C75.4184 15.8409 75.1551 15.7626 74.8543 15.7C74.5534 15.6373 74.2525 15.5666 73.9441 15.4962C73.6282 15.4257 73.3198 15.3315 73.0264 15.2297C72.7331 15.1278 72.4698 14.9868 72.2366 14.8065C72.0034 14.6341 71.8154 14.4068 71.68 14.1325C71.537 13.8582 71.4693 13.5212 71.4693 13.1136C71.4693 12.6748 71.5747 12.3142 71.7778 12.0164C71.9809 11.7186 72.2441 11.4835 72.5525 11.3032C72.8685 11.123 73.2145 10.9976 73.5981 10.9192C73.9818 10.8487 74.3503 10.8095 74.6964 10.8095C75.095 10.8095 75.4787 10.8565 75.8397 10.9427C76.2008 11.0289 76.5318 11.17 76.8252 11.3737C77.1185 11.5696 77.3592 11.8283 77.5548 12.1418C77.7503 12.4553 77.8707 12.8393 77.9234 13.2861H76.1482C76.0654 12.8628 75.8849 12.5729 75.5915 12.4317C75.2981 12.2829 74.9596 12.2124 74.5835 12.2124C74.4632 12.2124 74.3203 12.2202 74.1548 12.2437C73.9892 12.2672 73.8388 12.3064 73.6883 12.3613C73.5455 12.4161 73.425 12.5023 73.3198 12.6121C73.222 12.7218 73.1694 12.8628 73.1694 13.0431C73.1694 13.2626 73.2446 13.435 73.3874 13.5681C73.5304 13.7014 73.7185 13.8112 73.9516 13.9052C74.1849 13.9914 74.4481 14.0698 74.749 14.1325C75.0499 14.1951 75.3583 14.2657 75.6743 14.3363C75.9826 14.4068 76.2835 14.5008 76.5844 14.6027C76.8853 14.7045 77.1485 14.8457 77.3818 15.0259C77.615 15.2062 77.803 15.4257 77.946 15.6921C78.0888 15.9585 78.164 16.2956 78.164 16.6875C78.164 17.1655 78.0588 17.5652 77.8482 17.9022C77.6375 18.2313 77.3668 18.5056 77.0357 18.7095C76.7048 18.9132 76.3287 19.07 75.9225 19.164C75.5163 19.2581 75.1101 19.3051 74.7114 19.3051C74.2225 19.3051 73.7711 19.2502 73.3574 19.1326C72.9437 19.0151 72.5826 18.8427 72.2817 18.6154C71.9809 18.3803 71.7401 18.0903 71.5671 17.7455C71.394 17.4007 71.3039 16.9853 71.2888 16.5071H73.0039V16.4915ZM70.1067 19.0701H68.4368V17.9493H68.4067C68.1961 18.3569 67.8877 18.6782 67.4739 18.9211C67.0602 19.1641 66.639 19.2894 66.2102 19.2894C65.1947 19.2894 64.4575 19.0309 64.0062 18.5057C63.5549 17.9807 63.3292 17.1891 63.3292 16.1311V11.029H65.0292V15.9586C65.0292 16.6639 65.1571 17.1656 65.4204 17.4556C65.6761 17.7456 66.0447 17.8945 66.5111 17.8945C66.8722 17.8945 67.1655 17.8395 67.4062 17.722C67.6469 17.6044 67.8425 17.4556 67.9854 17.2596C68.1359 17.0715 68.2412 16.8364 68.3089 16.57C68.3766 16.3035 68.4067 16.0135 68.4067 15.7V11.0368H70.1067V19.0701ZM57.7704 11.0289H59.3651V12.5807H59.3952C59.4479 12.3613 59.5456 12.1497 59.6886 11.9459C59.8315 11.7421 60.0045 11.5462 60.2076 11.3816C60.4107 11.2092 60.6364 11.076 60.8846 10.9662C61.1328 10.8643 61.3886 10.8095 61.6443 10.8095C61.8399 10.8095 61.9828 10.8173 62.0581 10.8252C62.1333 10.833 62.2085 10.8487 62.2913 10.8565V12.565C62.1709 12.5415 62.0505 12.5259 61.9227 12.5101C61.7948 12.4945 61.6744 12.4867 61.5541 12.4867C61.2682 12.4867 60.9974 12.5493 60.7417 12.6668C60.4859 12.7844 60.2678 12.9647 60.0797 13.192C59.8917 13.4271 59.7412 13.7093 59.6284 14.0541C59.5156 14.399 59.4629 14.7908 59.4629 15.2376V19.0622H57.7629V11.0289H57.7704ZM49.5114 7.96455H58.1394V9.64174H54.7469V19.07H52.8814V9.64174H49.5039V7.96455H49.5114Z" fill="white"/>
<path fill-rule="evenodd" clip-rule="evenodd" d="M47.1612 8.17717H39.4624L37.0843 0.658447L34.6989 8.17717L27 8.16955L33.2349 12.8211L30.8494 20.3322L37.0843 15.6883L43.3118 20.3322L40.9338 12.8211L47.1612 8.17717Z" fill="#00B67A"/>
<path fill-rule="evenodd" clip-rule="evenodd" d="M41.4685 14.5215L40.9334 12.8211L37.084 15.6882L41.4685 14.5215Z" fill="#005128"/>
</svg>
