<svg xmlns="http://www.w3.org/2000/svg" width="57" height="57" viewBox="0 0 57 57"><defs><style>.a{fill:#bdc3c7;}</style></defs><circle class="a" cx="18.5" cy="31.5" r="5.5"/><path class="a" d="M18.5,38A6.5,6.5,0,1,1,25,31.5,6.5075,6.5075,0,0,1,18.5,38Zm0-11A4.5,4.5,0,1,0,23,31.5,4.5055,4.5055,0,0,0,18.5,27Z"/><circle class="a" cx="35.5" cy="31.5" r="5.5"/><path class="a" d="M35.5,38A6.5,6.5,0,1,1,42,31.5,6.5075,6.5075,0,0,1,35.5,38Zm0-11A4.5,4.5,0,1,0,40,31.5,4.5055,4.5055,0,0,0,35.5,27Z"/><path class="a" d="M13,32a.9991.9991,0,0,1-1-1A14.0154,14.0154,0,0,1,26,17a1,1,0,0,1,0,2A12.0134,12.0134,0,0,0,14,31,.9991.9991,0,0,1,13,32Z"/><path class="a" d="M30,32a.9991.9991,0,0,1-1-1A14.0154,14.0154,0,0,1,43,17a1,1,0,0,1,0,2A12.0134,12.0134,0,0,0,31,31,.9991.9991,0,0,1,30,32Z"/></svg>